{"title":"The.Graham.Norton.Show.S20E03.720p.HDTV.HEVC.x265.sharpysword","uid":16041191,"size":391027763,"categoryP":"video","categoryS":"tv_shows","magnet":"?xt=urn:btih:e204150f46a6d0b78ef2aa741fab0d90b57327f4&amp;dn=The.Graham.Norton.Show.S20E03.720p.HDTV.HEVC.x265.sharpysword&amp;tr=udp%3A%2F%2Ftracker.leechers-paradise.org%3A6969&amp;tr=udp%3A%2F%2Fzer0day.ch%3A1337&amp;tr=udp%3A%2F%2Fopen.demonii.com%3A1337&amp;tr=udp%3A%2F%2Ftracker.coppersurfer.tk%3A6969&amp;tr=udp%3A%2F%2Fexodus.desync.com%3A6969","seeders":26,"leechers":4,"uploader":"sharpysword","files":1,"time":1476507112,"description":"https://extraimago.com/image/wB1Q\r\n\r\nSource:The.Graham.Norton.Show.S20E03.720p.HDTV.x264-FTP.mkv\r\n\r\n2016-10-14 20E03 Amy Adams, Jeremy Renner, Chris O'Dowd, Niall Horan\r\n\r\n  \r\n    Stream #0:0(eng): Video: hevc (Main), yuv420p(tv), 1280x720 [SAR 1:1 DAR 16:9], 25 fps, 25 tbr, 1k tbn, 25 tbc (default)\r\n    Metadata:\r\n      ENCODER         : Lavc57.48.101 libx265\r\n      DURATION        : 47mn 50s\r\n    Stream #0:1(eng): Audio: aac (LC), 44100 Hz, stereo, fltp (default)\r\n    Metadata:\r\n      ENCODER         : Lavc57.48.101 libfdk_aac\r\n      DURATION        : 47mn 50s","torrent":{"xt":"urn:btih:e204150f46a6d0b78ef2aa741fab0d90b57327f4","amp;dn":"The.Graham.Norton.Show.S20E03.720p.HDTV.HEVC.x265.sharpysword","amp;tr":["udp%3A%2F%2Ftracker.leechers-paradise.org%3A6969","udp%3A%2F%2Fzer0day.ch%3A1337","udp%3A%2F%2Fopen.demonii.com%3A1337","udp%3A%2F%2Ftracker.coppersurfer.tk%3A6969","udp%3A%2F%2Fexodus.desync.com%3A6969"],"infoHash":"e204150f46a6d0b78ef2aa741fab0d90b57327f4","infoHashBuffer":{"type":"Buffer","data":[226,4,21,15,70,166,208,183,142,242,170,116,31,171,13,144,181,115,39,244]},"announce":[],"urlList":[]}}